#!OML:ASF Y:\EmotionMaleHayes\Project 1\Capture day 1\Session 1\Male1.ASF
:FULLY-SPECIFIED
:DEGREES
575
root 4.69591 16.712 -2.25514 354.025 28.005 350.803
lowerback 9.4218 4.8246 10.7944
upperback 3.02367 7.44093 0.866386
thorax -0.818499 3.79494 -5.75854
lowerneck -22.3432 3.35908 6.53015
upperneck 28.0935 3.13828 -1.84667
head 13.3421 1.88216 -1.25341
rclavicle -3.05756e-014 6.02318e-014
rhumerus -9.2242 17.5082 -82.3056
rradius 53.0607
rwrist -4.63156
rhand -12.6308 -30.1162
rfingers 7.12502
rthumb 13.449 -59.662
lclavicle -3.05756e-014 6.02318e-014
lhumerus -50.6115 9.40235 72.696
lradius 19.2337
lwrist -29.1524
lhand -5.52679 -25.4598
lfingers 7.12502
lthumb 20.2872 3.5007
rfemur 17.6928 -2.26531 32.5342
rtibia 8.01846
rfoot -23.2058 10.1946
rtoes 13.1834
lfemur -25.2185 11.7415 -6.67156
ltibia 13.8309
lfoot -7.31382 9.13868
ltoes -3.87554
576
root 4.81217 16.6718 -2.1122 353.995 27.6411 350.388
lowerback 9.1877 4.93164 11.0738
upperback 2.98534 7.58103 0.90934
thorax -0.673418 3.87257 -5.84677
lowerneck -22.4304 3.38119 6.57406
upperneck 28.1773 3.18736 -1.96461
head 13.4006 1.89227 -1.29774
rclavicle -4.11981e-014 1.98785e-015
rhumerus -8.79009 17.5334 -82.1722
rradius 52.9898
rwrist -4.6602
rhand -12.8073 -30.0365
rfingers 7.12502
rthumb 13.279 -59.5935
lclavicle -4.11981e-014 1.98785e-015
lhumerus -50.645 9.54308 72.4143
lradius 19.0438
lwrist -29.1371
lhand -5.45506 -25.1427
lfingers 7.12502
lthumb 20.3561 3.81045
rfemur 18.0781 -1.94024 32.9285
rtibia 8.36668
rfoot -23.4462 10.3214
rtoes 13.5211
lfemur -25.2035 11.8172 -6.31513
ltibia 11.7279
lfoot -7.67862 9.4777
ltoes -5.91138
577
root 4.92881 16.6295 -1.97384 353.899 27.4123 349.959
lowerback 9.11392 4.91054 11.3048
upperback 2.89155 7.57277 1.02732
thorax -0.71899 3.86194 -5.84627
lowerneck -22.3475 3.46311 6.57975
upperneck 28.2233 3.38839 -2.1933
head 13.4171 1.94949 -1.35341
rclavicle -1.06151e-013 -1.95803e-014
rhumerus -8.46178 17.8036 -82.0508
rradius 52.9583
rwrist -4.72159
rhand -12.8744 -30.2834
rfingers 7.12502
rthumb 13.2142 -59.8446
lclavicle -1.06151e-013 -1.95803e-014
lhumerus -50.8853 10.4146 71.706
lradius 18.7397
lwrist -29.8716
lhand -5.6996 -25.1784
lfingers 7.12502
lthumb 20.1211 3.79963
rfemur 18.5035 -1.92389 33.1671
rtibia 8.71686
rfoot -23.671 10.6573
rtoes 14.0724
lfemur -25.1965 11.4838 -5.85861
ltibia 9.76723
lfoot -8.03327 9.84031
ltoes -6.84979
578
root 5.04313 16.5847 -1.83568 353.827 27.228 349.726
lowerback 9.10059 4.88684 11.3276
upperback 2.86367 7.5456 1.10985
thorax -0.754769 3.84442 -5.7721
lowerneck -22.4957 3.60706 6.68502
upperneck 28.3504 3.61268 -2.38904
head 13.5201 2.03089 -1.40641
rclavicle -8.44338e-014 9.93923e-016
rhumerus -8.03701 18.0547 -81.917
rradius 52.8045
rwrist -4.80197
rhand -12.9264 -30.0312
rfingers 7.12502
rthumb 13.1641 -59.5956
lclavicle -8.44338e-014 9.93923e-016
lhumerus -51.0397 11.4383 70.9184
lradius 18.4994
lwrist -30.9381
lhand -5.63642 -25.3358
lfingers 7.12502
lthumb 20.1818 3.63587
rfemur 18.9833 -1.64499 33.3739
rtibia 9.1035
rfoot -24.067 10.4809
rtoes 13.8104
lfemur -25.1207 10.9504 -5.57464
ltibia 8.51617
lfoot -8.85787 10.183
ltoes -6.68738
579
root 5.14965 16.5421 -1.697 353.782 27.004 349.481
lowerback 9.11942 4.91149 11.323
upperback 2.81304 7.5857 1.18463
thorax -0.822941 3.85742 -5.6995
lowerneck -22.5482 3.69268 6.61253
upperneck 28.3902 3.75584 -2.37092
head 13.5535 2.08732 -1.36019
rclavicle -5.57094e-014 -7.35503e-015
rhumerus -7.85104 18.1151 -81.8808
rradius 52.7388
rwrist -4.57804
rhand -13.0391 -29.9652
rfingers 7.12502
rthumb 13.0555 -59.5366
lclavicle -5.57094e-014 -7.35503e-015
lhumerus -51.0997 12.0364 70.407
lradius 18.3346
lwrist -31.898
lhand -5.2335 -25.3188
lfingers 7.12502
lthumb 20.569 3.61142
rfemur 19.381 -0.959407 33.8693
rtibia 9.54882
rfoot -24.4654 9.80954
rtoes 12.3163
lfemur -24.8296 9.62644 -5.00921
ltibia 7.01829
lfoot -9.47373 11.4355
ltoes -5.77382
580
root 5.26437 16.4996 -1.55578 353.833 26.8158 349.488
lowerback 9.12316 4.92556 11.1728
upperback 2.75664 7.59452 1.16163
thorax -0.900318 3.85422 -5.64777
lowerneck -22.494 3.78989 6.56735
upperneck 28.4047 3.9334 -2.41036
head 13.5576 2.15442 -1.33608
rclavicle -1.4146e-013 -9.93923e-016
rhumerus -7.68976 18.1865 -81.9341
rradius 52.6024
rwrist -4.37784
rhand -13.0243 -30.4207
rfingers 7.12502
rthumb 13.0698 -59.9912
lclavicle -1.4146e-013 -9.93923e-016
lhumerus -51.1529 12.5719 69.8814
lradius 18.1096
lwrist -32.82
lhand -5.32779 -25.3747
lfingers 7.12502
lthumb 20.4784 3.56535
rfemur 19.8668 -0.541715 33.892
rtibia 9.90373
rfoot -24.6374 9.7318
rtoes 11.1847
lfemur -25.5197 11.0428 -5.59115
ltibia 7.6399
lfoot -9.516 10.3362
ltoes -6.11711
581
root 5.39075 16.4582 -1.40738 353.89 26.5842 349.816
lowerback 9.11362 4.97838 10.8137
upperback 2.79397 7.62471 1.01479
thorax -0.878045 3.87154 -5.60501
lowerneck -22.5049 3.90468 6.85971
upperneck 28.4154 4.08158 -2.69489
head 13.5882 2.21037 -1.47066
rclavicle 1.03766e-013 -1.49089e-014
rhumerus -7.46149 18.07 -82.0554
rradius 52.3002
rwrist -4.25441
rhand -13.2544 -30.4954
rfingers 7.12502
rthumb 12.848 -60.08
lclavicle 1.03766e-013 -1.49089e-014
lhumerus -51.1407 13.1772 69.2331
lradius 17.9205
lwrist -33.6983
lhand -5.42143 -25.5156
lfingers 7.12502
lthumb 20.3884 3.43406
rfemur 20.5455 -0.242179 33.4346
rtibia 10.3296
rfoot -24.8496 9.98508
rtoes 10.6953
lfemur -25.4446 11.0541 -6.12025
ltibia 7.63462
lfoot -9.71359 10.669
ltoes -7.12351
582
root 5.51163 16.42 -1.25836 353.775 26.3793 349.708
lowerback 9.09577 4.99802 10.7751
upperback 2.79722 7.64491 1.01501
thorax -0.866572 3.8822 -5.58268
lowerneck -22.375 4.00121 6.96889
upperneck 28.298 4.23202 -2.83167
head 13.5272 2.26795 -1.51652
rclavicle 9.30312e-014 -2.68359e-014
rhumerus -7.45257 17.9132 -82.1651
rradius 52.1013
rwrist -4.07637
rhand -13.6592 -30.1036
rfingers 7.12502
rthumb 12.4577 -59.7123
lclavicle 9.30312e-014 -2.68359e-014
lhumerus -51.216 13.5045 68.8969
lradius 17.9519
lwrist -34.2603
lhand -5.13422 -25.5074
lfingers 7.12502
lthumb 20.6644 3.41255
rfemur 21.0922 0.181332 33.5918
rtibia 10.9518
rfoot -25.1922 9.80167
rtoes 9.70058
lfemur -25.5092 11.0862 -6.1871
ltibia 8.16187
lfoot -9.99151 10.9697
ltoes -7.37398
583
root 5.63052 16.3815 -1.10977 353.776 26.2856 349.52
lowerback 8.94885 5.00736 10.7751
upperback 2.7531 7.6418 1.02662
thorax -0.834375 3.88048 -5.55685
lowerneck -22.2975 4.08386 6.88465
upperneck 28.1948 4.3574 -2.74274
head 13.4705 2.32491 -1.44453
rclavicle -2.5842e-015 5.46658e-014
rhumerus -7.5608 17.937 -82.2248
rradius 52.0352
rwrist -4.06792
rhand -13.88 -30.0398
rfingers 7.12502
rthumb 12.2448 -59.6613
lclavicle -2.5842e-015 5.46658e-014
lhumerus -51.123 13.3775 68.9877
lradius 18.0183
lwrist -34.2421
lhand -4.8562 -25.356
lfingers 7.12502
lthumb 20.9316 3.53463
rfemur 21.4553 0.637587 33.9436
rtibia 11.5491
rfoot -25.4359 9.36048
rtoes 8.2321
lfemur -26.0273 11.3036 -6.35282
ltibia 9.48184
lfoot -10.1957 10.8694
ltoes -6.69548
584
root 5.75881 16.3432 -0.95263 353.995 26.1699 349.764
lowerback 8.69924 5.09573 10.406
upperback 2.72291 7.69514 0.91805
thorax -0.754304 3.90908 -5.44692
lowerneck -22.3816 4.12883 6.90442
upperneck 28.2554 4.41132 -2.74462
head 13.5174 2.3499 -1.43767
rclavicle -8.40362e-014 8.34896e-015
rhumerus -8.00058 17.9376 -82.2948
rradius 52.204
rwrist -4.13783
rhand -14.2439 -30.4857
rfingers 7.12502
rthumb 11.8939 -60.1278
lclavicle -8.40362e-014 8.34896e-015
lhumerus -50.7876 13.3874 68.9485
lradius 17.7909
lwrist -34.5945
lhand -4.76812 -25.254
lfingers 7.12502
lthumb 21.0162 3.6273
rfemur 21.8576 1.07462 33.7635
rtibia 12.1035
rfoot -25.4913 9.20843
rtoes 7.27994
lfemur -26.4051 11.2225 -6.95728
ltibia 10.9807
lfoot -10.3365 10.723
ltoes -5.57809
585
root 5.88395 16.3137 -0.79298 354.093 25.9468 349.903
lowerback 8.57585 5.2021 10.0734
upperback 2.71669 7.79228 0.855742
thorax -0.713533 3.95801 -5.32293
lowerneck -22.6045 4.1621 6.87104
upperneck 28.4098 4.43898 -2.68259
head 13.6281 2.36605 -1.39975
rclavicle 2.09718e-014 -8.74653e-015
rhumerus -8.35065 17.6863 -82.4511
rradius 52.1131
rwrist -3.98512
rhand -14.6059 -30.7167
rfingers 7.12502
rthumb 11.5448 -60.3788
lclavicle 2.09718e-014 -8.74653e-015
lhumerus -50.4043 13.9115 68.4914
lradius 17.4505
lwrist -35.751
lhand -4.796 -25.4117
lfingers 7.12502
lthumb 20.9894 3.47259
rfemur 22.2719 1.48917 33.6047
rtibia 12.7254
rfoot -25.3083 9.39474
rtoes 7.31074
lfemur -26.823 11.6963 -7.50558
ltibia 13.1081
lfoot -10.4313 10.114
ltoes -4.66794
